<svg width="25" height="24" viewBox="0 0 25 24" fill="none" xmlns="http://www.w3.org/2000/svg">
  <g id="icon-credit-card-dollar">
  <path id="Vector" d="M2.44434 6.30688H19.3081M5.44434 10.9998H9.94434M8.94434 14.2999H3.56869C2.94797 14.2999 2.44434 13.7963 2.44434 13.1756V4.05795C2.44434 3.43723 2.94797 2.93359 3.56869 2.93359H18.1837C18.8045 2.93359 19.3081 3.43723 19.3081 4.05795V7.99976M16.7916 12.4443V13.2082M16.7916 18.5553V17.7914M18.3114 14.2775C18.2717 13.6811 17.7797 13.2081 17.1735 13.2081H16.3363C15.7435 13.2081 15.2638 13.6884 15.2638 14.2806C15.2638 14.7725 15.5987 15.2015 16.0754 15.3213L17.5072 15.6806C17.9845 15.8004 18.3187 16.2294 18.3187 16.7214C18.3187 17.3141 17.8384 17.7939 17.2462 17.7939H16.409C15.8016 17.7939 15.3096 17.3196 15.2705 16.722M12.5541 18.7924C13.56 20.1283 15.1532 20.9998 16.9444 20.9998C19.9694 20.9998 22.4444 18.5248 22.4444 15.4998C22.4444 12.4748 19.9694 9.99976 16.9444 9.99976C13.9194 9.99976 11.4443 12.4748 11.4443 15.4998C11.4443 16.7336 11.8611 17.8721 12.5541 18.7924Z" stroke="white" stroke-width="1.5" stroke-linecap="round" stroke-linejoin="round"></path>
  </g>
</svg>